<svg width="40" height="42" viewBox="0 0 40 42" fill="none" xmlns="http://www.w3.org/2000/svg">
<path d="M32.5097 5.24182H30.8035V7.79299H28.2523V9.49924H30.8035V12.0586H32.5097V9.49924H35.0691V7.79299H32.5097V5.24182Z" fill="black"/>
<path d="M8.10547 3.29768C8.02344 2.87112 7.67891 2.61682 7.25234 2.61682H0.3125V4.33127H6.56328L12.207 27.1606C12.2891 27.5871 12.6336 27.8414 13.0602 27.8414H35.0609V26.127H13.6672L8.10547 3.29768Z" fill="black"/>
<path d="M32.5836 30.4911H13.0684V32.2055H32.5836V30.4911Z" fill="black"/>
<path d="M31.5582 34.4286C29.7617 34.4286 28.2195 35.9708 28.2195 37.7673C28.2195 39.5638 29.6714 41.1059 31.5582 41.1059C33.4449 41.1059 34.8968 39.5638 34.8968 37.7673C34.8968 35.9708 33.3546 34.4286 31.5582 34.4286ZM31.5582 39.3833C30.705 39.3833 29.9339 38.6122 29.9339 37.7591C29.9339 36.9059 30.6148 36.1348 31.5582 36.1348C32.5015 36.1348 33.1824 36.9059 33.1824 37.7591C33.1824 38.6204 32.4113 39.3833 31.5582 39.3833Z" fill="black"/>
<path d="M15.2914 34.4286C13.4949 34.4286 11.9528 35.9708 11.9528 37.7673C11.9528 39.5638 13.4047 41.1059 15.2914 41.1059C17.0879 41.1059 18.6301 39.5638 18.6301 37.7673C18.6301 35.9708 17.0879 34.4286 15.2914 34.4286ZM15.2914 39.3833C14.4383 39.3833 13.6672 38.6122 13.6672 37.7591C13.6672 36.9059 14.3481 36.1348 15.2914 36.1348C16.1446 36.1348 16.9156 36.9059 16.9156 37.7591C16.9156 38.6204 16.1446 39.3833 15.2914 39.3833Z" fill="black"/>
<path d="M39.6876 8.59688C39.6876 4.32305 36.2669 0.902344 31.9848 0.902344C27.7028 0.902344 24.2821 4.32305 24.2821 8.59688C24.2821 8.6543 24.2821 8.71172 24.2821 8.76914H12.7239C11.9036 8.76914 11.7641 9.51562 11.8708 9.88477L15.554 22.8867C15.6442 23.2395 16.0708 23.4855 16.4071 23.4855H35.0692C35.4958 23.4855 35.8403 23.2313 36.0126 22.8047C36.0126 22.8047 39.4415 10.5902 39.4989 10.3441C39.6219 9.77812 39.6876 9.1957 39.6876 8.59688ZM13.8395 10.4836H24.5118C24.7497 11.4516 25.1762 12.3539 25.7423 13.1332H14.5204L13.8395 10.4836ZM34.3801 21.7711H17.0059L16.3251 19.1215H35.1594L34.3801 21.7711ZM35.668 17.407H15.8165L15.0782 14.8395H27.4567C28.7282 15.7582 30.2868 16.2914 31.9848 16.2914C33.6255 16.2914 35.1348 15.791 36.3735 14.9297L35.668 17.407ZM31.9848 14.5852C28.6462 14.5852 25.9966 11.9355 25.9966 8.59688C25.9966 5.2582 28.6462 2.60859 31.9848 2.60859C35.3235 2.60859 37.9731 5.2582 37.9731 8.59688C37.9731 11.9355 35.3235 14.5852 31.9848 14.5852Z" fill="black"/>
</svg>
