<svg width="83" height="116" viewBox="0 0 83 116" fill="none" xmlns="http://www.w3.org/2000/svg">
<path fill-rule="evenodd" clip-rule="evenodd" d="M63.7382 104.688C57.1094 111.607 47.2041 116 36.1367 116C35.1494 116 34.1712 115.965 33.2039 115.896L48.1854 98.2829L63.7382 104.688ZM67.674 99.6819C70.6032 95.0719 72.2734 89.7543 72.2734 84.0922C72.2734 81.113 71.811 76.7377 70.9461 71.5235L58.9917 85.5781L67.674 99.6819ZM70.0525 66.5774L50.2481 71.3747L36.1006 48.3931L34.0379 75.3013L7.80928 81.6547L32.7631 91.9315L30.9432 115.673C13.446 113.449 1.40445e-06 100.157 0 84.0922C-1.54058e-06 66.4701 16.1789 1.74476e-06 36.1367 0C51.6999 -2.46355e-06 64.9652 40.4204 70.0525 66.5774Z" fill="#00A3FF"/>
<path d="M83 21.5C83 27.8513 77.8513 33 71.5 33C69.7081 33 68.5119 36.2311 67 35.5C65.7765 34.9084 64.1737 30.4654 63.2386 29.5C61.2339 27.4301 60 24.6092 60 21.5C60 15.1487 65.1487 10 71.5 10C77.8513 10 83 15.1487 83 21.5Z" fill="#00A3FF"/>
</svg>
