<svg width="139" height="130" viewBox="0 0 139 130" fill="none" xmlns="http://www.w3.org/2000/svg">
<path d="M36.1368 116C56.0945 116 72.2735 101.714 72.2735 84.0922C72.2735 66.4701 56.0945 1.41441e-06 36.1368 3.15917e-06C16.179 4.90393e-06 6.43345e-05 66.4701 6.58751e-05 84.0922C6.74157e-05 101.714 16.179 116 36.1368 116Z" fill="#00A3FF"/>
<path d="M36.1006 48.393L50.2481 71.3746L76.4767 65.0212L58.9917 85.578L73.1393 108.56L48.1854 98.2828L30.7005 118.84L32.7631 91.9314L7.80931 81.6546L34.0379 75.3012L36.1006 48.393Z" fill="white"/>
<path d="M83 21.5C83 27.8513 77.8513 33 71.5 33C69.7081 33 68.5119 36.2311 67 35.5C65.7765 34.9084 64.1737 30.4654 63.2386 29.5C61.2339 27.4301 60 24.6092 60 21.5C60 15.1487 65.1487 10 71.5 10C77.8513 10 83 15.1487 83 21.5Z" fill="#00A3FF"/>
<path d="M84.818 75.378H83.504V74.64H84.818V74.334C84.818 73.914 84.878 73.494 84.998 73.074C85.118 72.642 85.304 72.246 85.556 71.886C85.808 71.526 86.132 71.238 86.528 71.022C86.936 70.794 87.422 70.68 87.986 70.68C88.646 70.68 89.192 70.782 89.624 70.986C90.068 71.178 90.356 71.328 90.488 71.436L90.038 72.066C89.87 71.922 89.606 71.79 89.246 71.67C88.886 71.55 88.478 71.49 88.022 71.49C87.47 71.49 87.026 71.634 86.69 71.922C86.354 72.21 86.108 72.57 85.952 73.002C85.796 73.434 85.718 73.872 85.718 74.316V74.64H90.308V84H89.408V75.378H85.718V84H84.818V75.378ZM96.0748 84.18C95.3308 84.18 94.6408 84.054 94.0048 83.802C93.3688 83.55 92.8108 83.166 92.3308 82.65L92.7448 82.02C93.2488 82.512 93.7648 82.872 94.2928 83.1C94.8328 83.316 95.4148 83.424 96.0388 83.424C96.8308 83.424 97.4788 83.256 97.9828 82.92C98.4868 82.584 98.7388 82.116 98.7388 81.516C98.7388 81.108 98.6188 80.796 98.3788 80.58C98.1508 80.364 97.8148 80.184 97.3708 80.04C96.9388 79.896 96.4108 79.746 95.7868 79.59C95.1508 79.422 94.6168 79.248 94.1848 79.068C93.7528 78.888 93.4228 78.654 93.1948 78.366C92.9788 78.078 92.8708 77.688 92.8708 77.196C92.8708 76.584 93.0208 76.08 93.3208 75.684C93.6328 75.276 94.0468 74.976 94.5628 74.784C95.0908 74.58 95.6728 74.478 96.3088 74.478C97.0408 74.478 97.6768 74.598 98.2168 74.838C98.7688 75.078 99.1888 75.396 99.4768 75.792L98.9908 76.368C98.7028 75.996 98.3128 75.714 97.8208 75.522C97.3288 75.33 96.8008 75.234 96.2368 75.234C95.7928 75.234 95.3788 75.294 94.9948 75.414C94.6228 75.534 94.3168 75.732 94.0768 76.008C93.8488 76.272 93.7348 76.632 93.7348 77.088C93.7348 77.448 93.8188 77.73 93.9868 77.934C94.1548 78.138 94.4128 78.306 94.7608 78.438C95.1088 78.558 95.5468 78.69 96.0748 78.834C96.8068 79.014 97.4368 79.2 97.9648 79.392C98.4928 79.584 98.9008 79.836 99.1888 80.148C99.4768 80.448 99.6208 80.874 99.6208 81.426C99.6208 82.278 99.2968 82.95 98.6488 83.442C98.0008 83.934 97.1428 84.18 96.0748 84.18ZM109.386 84H108.486V78.78C108.486 76.464 107.712 75.306 106.164 75.306C105.66 75.306 105.168 75.432 104.688 75.684C104.208 75.936 103.782 76.284 103.41 76.728C103.05 77.16 102.792 77.652 102.636 78.204V84H101.736V70.86H102.636V76.872C103.02 76.14 103.554 75.558 104.238 75.126C104.922 74.694 105.648 74.478 106.416 74.478C107.46 74.478 108.216 74.85 108.684 75.594C109.152 76.326 109.386 77.334 109.386 78.618V84ZM116.481 84.18C115.749 84.18 115.065 83.988 114.429 83.604C113.793 83.208 113.295 82.716 112.935 82.128V84H112.107V70.86H113.007V76.674C113.451 76.026 113.973 75.498 114.573 75.09C115.185 74.682 115.887 74.478 116.679 74.478C117.339 74.478 117.933 74.616 118.461 74.892C118.989 75.168 119.439 75.54 119.811 76.008C120.183 76.476 120.465 77.004 120.657 77.592C120.861 78.168 120.963 78.756 120.963 79.356C120.963 79.992 120.849 80.604 120.621 81.192C120.393 81.768 120.075 82.284 119.667 82.74C119.259 83.184 118.785 83.538 118.245 83.802C117.705 84.054 117.117 84.18 116.481 84.18ZM116.301 83.37C117.033 83.37 117.681 83.178 118.245 82.794C118.809 82.398 119.247 81.894 119.559 81.282C119.883 80.67 120.045 80.028 120.045 79.356C120.045 78.648 119.895 77.988 119.595 77.376C119.295 76.752 118.875 76.248 118.335 75.864C117.795 75.48 117.171 75.288 116.463 75.288C115.935 75.288 115.449 75.408 115.005 75.648C114.561 75.876 114.171 76.182 113.835 76.566C113.499 76.938 113.223 77.34 113.007 77.772V80.868C113.043 81.216 113.169 81.54 113.385 81.84C113.613 82.14 113.889 82.41 114.213 82.65C114.549 82.878 114.897 83.058 115.257 83.19C115.629 83.31 115.977 83.37 116.301 83.37ZM127.557 75.45C126.717 75.474 125.979 75.726 125.343 76.206C124.719 76.674 124.281 77.322 124.029 78.15V84H123.129V74.64H123.993V76.944C124.317 76.296 124.749 75.762 125.289 75.342C125.829 74.922 126.399 74.682 126.999 74.622C127.119 74.622 127.221 74.622 127.305 74.622C127.401 74.61 127.485 74.604 127.557 74.604V75.45ZM132.836 84.18C131.96 84.18 131.174 83.958 130.478 83.514C129.794 83.07 129.254 82.482 128.858 81.75C128.462 81.018 128.264 80.214 128.264 79.338C128.264 78.678 128.378 78.06 128.606 77.484C128.834 76.896 129.158 76.38 129.578 75.936C129.998 75.48 130.484 75.126 131.036 74.874C131.588 74.61 132.188 74.478 132.836 74.478C133.484 74.478 134.084 74.61 134.636 74.874C135.188 75.126 135.668 75.48 136.076 75.936C136.496 76.38 136.82 76.896 137.048 77.484C137.288 78.06 137.408 78.678 137.408 79.338C137.408 80.214 137.204 81.018 136.796 81.75C136.4 82.482 135.854 83.07 135.158 83.514C134.474 83.958 133.7 84.18 132.836 84.18ZM129.164 79.374C129.164 80.106 129.326 80.778 129.65 81.39C129.986 81.99 130.43 82.47 130.982 82.83C131.534 83.19 132.146 83.37 132.818 83.37C133.49 83.37 134.102 83.19 134.654 82.83C135.218 82.458 135.662 81.966 135.986 81.354C136.322 80.742 136.49 80.064 136.49 79.32C136.49 78.588 136.322 77.916 135.986 77.304C135.662 76.692 135.218 76.206 134.654 75.846C134.102 75.474 133.496 75.288 132.836 75.288C132.164 75.288 131.552 75.474 131 75.846C130.448 76.218 130.004 76.716 129.668 77.34C129.332 77.952 129.164 78.63 129.164 79.374Z" fill="white"/>
</svg>
